<svg width="32" height="32" viewBox="0 0 32 32" fill="none" xmlns="http://www.w3.org/2000/svg">
<g id="linkedin">
<path id="Vector" d="M17.712 14.1345H17.7344V14.0993L17.712 14.1345ZM17.712 14.1345H17.7344V14.0993L17.712 14.1345ZM17.712 14.1345H17.7344V14.0993L17.712 14.1345ZM17.712 14.1345H17.7344V14.0993L17.712 14.1345ZM17.712 14.1345H17.7344V14.0993L17.712 14.1345ZM17.712 14.1345H17.7344V14.0993L17.712 14.1345ZM17.712 14.1345H17.7344V14.0993L17.712 14.1345ZM17.712 14.1345H17.7344V14.0993L17.712 14.1345ZM17.712 14.1345H17.7344V14.0993L17.712 14.1345ZM17.712 14.1345H17.7344V14.0993L17.712 14.1345ZM17.712 14.1345H17.7344V14.0993L17.712 14.1345ZM17.712 14.1345H17.7344V14.0993L17.712 14.1345ZM17.712 14.1345H17.7344V14.0993L17.712 14.1345ZM17.712 14.1345H17.7344V14.0993L17.712 14.1345ZM17.712 14.1345H17.7344V14.0993L17.712 14.1345ZM17.712 14.1345H17.7344V14.0993L17.712 14.1345ZM16.256 1.20654C13.3656 1.20654 10.54 2.06366 8.13668 3.66951C5.73336 5.27536 3.86019 7.55782 2.75406 10.2283C1.64793 12.8987 1.35852 15.8372 1.92242 18.6721C2.48632 21.507 3.87821 24.111 5.92207 26.1549C7.96593 28.1987 10.57 29.5906 13.4049 30.1545C16.2398 30.7184 19.1783 30.429 21.8487 29.3229C24.5191 28.2168 26.8016 26.3436 28.4074 23.9403C30.0133 21.5369 30.8704 18.7114 30.8704 15.8209C30.8662 11.9463 29.3251 8.23149 26.5853 5.49168C23.8455 2.75187 20.1307 1.21078 16.256 1.20654ZM12.6016 22.4001C12.6008 22.4649 12.5744 22.5268 12.5283 22.5723C12.4822 22.6178 12.42 22.6434 12.3552 22.6433H9.53921C9.47471 22.6433 9.41285 22.6177 9.36724 22.5721C9.32163 22.5265 9.29601 22.4646 9.29601 22.4001V12.9377C9.29558 12.9055 9.30156 12.8736 9.31359 12.8437C9.32563 12.8138 9.34347 12.7866 9.3661 12.7637C9.38872 12.7408 9.41568 12.7226 9.44539 12.7102C9.47511 12.6977 9.507 12.6913 9.53921 12.6913H12.3552C12.3876 12.6913 12.4196 12.6977 12.4495 12.7101C12.4794 12.7225 12.5066 12.7406 12.5294 12.7635C12.5523 12.7864 12.5705 12.8136 12.5829 12.8435C12.5952 12.8733 12.6016 12.9054 12.6016 12.9377V22.4001ZM10.848 11.4273C10.498 11.4273 10.1559 11.3236 9.86487 11.1291C9.57386 10.9347 9.34705 10.6583 9.21311 10.3349C9.07917 10.0116 9.04413 9.65578 9.11241 9.31251C9.18069 8.96924 9.34923 8.65393 9.59671 8.40645C9.8442 8.15896 10.1595 7.99043 10.5028 7.92215C10.846 7.85387 11.2019 7.88891 11.5252 8.02285C11.8486 8.15678 12.1249 8.3836 12.3194 8.67461C12.5138 8.96562 12.6176 9.30775 12.6176 9.65774C12.618 9.89025 12.5725 10.1206 12.4838 10.3354C12.395 10.5503 12.2647 10.7456 12.1002 10.91C11.9358 11.0744 11.7406 11.2047 11.5257 11.2935C11.3108 11.3823 11.0805 11.4278 10.848 11.4273ZM24.5184 22.4001C24.5176 22.4649 24.4912 22.5268 24.4451 22.5723C24.399 22.6178 24.3368 22.6434 24.272 22.6433H21.456C21.4241 22.6433 21.3924 22.6371 21.3629 22.6248C21.3334 22.6126 21.3066 22.5947 21.284 22.5721C21.2615 22.5495 21.2435 22.5227 21.2313 22.4932C21.2191 22.4637 21.2128 22.4321 21.2128 22.4001V17.3153C21.2128 15.9777 20.736 15.0753 19.5392 15.0753C19.1663 15.0774 18.8031 15.1948 18.4995 15.4113C18.1959 15.6279 17.9666 15.933 17.8432 16.2849C17.7588 16.545 17.722 16.8182 17.7344 17.0913V22.4001C17.7344 22.4655 17.7085 22.5282 17.6622 22.5744C17.616 22.6206 17.5534 22.6465 17.488 22.6465H14.672C14.6398 22.6465 14.6079 22.6402 14.5782 22.6277C14.5485 22.6153 14.5215 22.5971 14.4989 22.5742C14.4763 22.5513 14.4584 22.5241 14.4464 22.4942C14.4344 22.4643 14.4284 22.4324 14.4288 22.4001C14.4288 21.0497 14.464 14.4929 14.4288 12.9505C14.4284 12.9183 14.4344 12.8864 14.4464 12.8565C14.4584 12.8266 14.4763 12.7994 14.4989 12.7765C14.5215 12.7536 14.5485 12.7354 14.5782 12.723C14.6079 12.7105 14.6398 12.7041 14.672 12.7041H17.4816C17.5141 12.7037 17.5463 12.7098 17.5764 12.722C17.6065 12.7343 17.6338 12.7524 17.6568 12.7754C17.6798 12.7983 17.6979 12.8257 17.7101 12.8557C17.7224 12.8858 17.7284 12.9181 17.728 12.9505V14.1121C18.0273 13.5925 18.4632 13.1648 18.9884 12.8754C19.5136 12.5861 20.1081 12.446 20.7072 12.4705C22.88 12.4705 24.512 13.8913 24.512 16.9505L24.5184 22.4001ZM17.7344 14.1441V14.1089L17.712 14.1441H17.7344ZM17.712 14.1441H17.7344V14.1089L17.712 14.1441ZM17.712 14.1441H17.7344V14.1089L17.712 14.1441ZM17.712 14.1441H17.7344V14.1089L17.712 14.1441ZM17.712 14.1441H17.7344V14.1089L17.712 14.1441ZM17.712 14.1441H17.7344V14.1089L17.712 14.1441ZM17.712 14.1441H17.7344V14.1089L17.712 14.1441ZM17.712 14.1441H17.7344V14.1089L17.712 14.1441ZM17.712 14.1441H17.7344V14.1089L17.712 14.1441ZM17.712 14.1441H17.7344V14.1089L17.712 14.1441ZM17.712 14.1441H17.7344V14.1089L17.712 14.1441ZM17.712 14.1441H17.7344V14.1089L17.712 14.1441ZM17.712 14.1441H17.7344V14.1089L17.712 14.1441ZM17.712 14.1441H17.7344V14.1089L17.712 14.1441ZM17.712 14.1441H17.7344V14.1089L17.712 14.1441Z" fill="#0072B1"/>
</g>
</svg>
